<svg id="Layer_1" data-name="Layer 1" xmlns="http://www.w3.org/2000/svg" viewBox="0 0 54.35 48.91"><defs><style>.cls-1{fill:#282c34;}</style></defs><title>cart</title><path class="cls-1" d="M14.67,17.48c.34,0,1.64-.19,1.81-.51L23.83,1.41a1,1,0,0,0,0-1.41,1,1,0,0,0-1.69.51L13.82,16.07a1,1,0,0,0,.85,1.41Z" transform="translate(0.04 0.3)"/><path class="cls-1" d="M39.61,17.48a1,1,0,0,0,.46-.11,1,1,0,0,0,.39-1.3L32.15.51A1,1,0,0,0,31-.26,1,1,0,0,0,30.19.93a1,1,0,0,0,.26.48L37.81,17C38,17.25,39.27,17.48,39.61,17.48Z" transform="translate(0.04 0.3)"/><path class="cls-1" d="M53.31,15.56H1c-.53,0-1,.76-1,1.7S.39,19,1,19H2.45l6.7,27.64a2.13,2.13,0,0,0,2.13,2H43a2.13,2.13,0,0,0,2.12-2L51.83,19h1.48c.54,0,1-.77,1-1.71S53.85,15.56,53.31,15.56ZM9.51,19.5h3l1.1,11.37H10.86Zm2.76,23.75-1.09-9.38h2.7l.9,9.38ZM17.58,19.5h3l.49,11.37H18.31Zm1.5,23.75-.6-9.38h2.7l.41,9.38Zm9.32,0H25.88l-.09-9.38h2.7Zm.12-12.38H25.76L25.65,19.5h3ZM35.2,43.25H32.67l.41-9.38h2.69ZM36,30.87H33.23l.49-11.37h3Zm6,12.38H39.47l.9-9.38h2.7Zm1.44-12.38H40.67l1.1-11.37h3Z" transform="translate(0.04 0.3)"/></svg>