<svg id="Layer_1" data-name="Layer 1" xmlns="http://www.w3.org/2000/svg" viewBox="0 0 60.2 77.26"><defs><style>.cls-1{fill:#f2f2f2;}</style></defs><title>remove_white</title><path class="cls-1" d="M689.69,1459.35h0l3.29,2.75v52.24a4.63,4.63,0,0,0,4.63,4.63h44a4.63,4.63,0,0,0,4.64-4.63V1462.1l3.28-2.75h0v-4.59H689.69Zm40.43,7.24h5.59v44.93h-5.59Zm-13.26,0h5.59v44.93h-5.59Zm-13.26,0h5.59v44.93H703.6Z" transform="translate(-689.56 -1441.72)"/><path class="cls-1" d="M748.63,1448.17H729.12v-4.57a1.89,1.89,0,0,0-1.89-1.88H712.08a1.88,1.88,0,0,0-1.88,1.88v4.57H690.68a1.12,1.12,0,0,0-1.12,1.12v3.61h60.2v-3.61A1.13,1.13,0,0,0,748.63,1448.17Zm-23-1.15h-12v-1.26a.6.6,0,0,1,.6-.6h10.83a.6.6,0,0,1,.61.6Z" transform="translate(-689.56 -1441.72)"/></svg>